<?xml version="1.0" encoding="UTF-8" standalone="no"?>
<svg
   aria-hidden="true"
   role="img"
   style="color: rgb(134, 0, 179); opacity: 1; transform: rotate(0deg);"
   width="64"
   height="64"
   viewBox="0 0 24 24"
   version="1.1"
   id="svg1"
   sodipodi:docname="pinned.svg"
   inkscape:version="1.4.4 (dcaf3e7, 2026-05-05)"
   xmlns:inkscape="http://www.inkscape.org/namespaces/inkscape"
   xmlns:sodipodi="http://sodipodi.sourceforge.net/DTD/sodipodi-0.dtd"
   xmlns="http://www.w3.org/2000/svg"
   xmlns:svg="http://www.w3.org/2000/svg">
  <defs
     id="defs1" />
  <sodipodi:namedview
     id="namedview1"
     pagecolor="#ffffff"
     bordercolor="#000000"
     borderopacity="0.25"
     inkscape:showpageshadow="2"
     inkscape:pageopacity="0.0"
     inkscape:pagecheckerboard="0"
     inkscape:deskcolor="#d1d1d1"
     inkscape:zoom="12.078125"
     inkscape:cx="31.958603"
     inkscape:cy="32"
     inkscape:window-width="1920"
     inkscape:window-height="984"
     inkscape:window-x="0"
     inkscape:window-y="30"
     inkscape:window-maximized="1"
     inkscape:current-layer="svg1" />
  <path
     fill="currentColor"
     d="m 21.447,9.559 c -0.01608,0.2894782 -0.101844,0.570789 -0.25,0.82 -0.139792,0.247398 -0.330698,0.462167 -0.56,0.63 -0.09989,0.07256 -0.217186,0.117408 -0.34,0.13 l -1.76,0.23 c -0.195257,0.03326 -0.376241,0.123748 -0.52,0.26 -0.53,0.51 -1.07,1 -1.81,1.78 l -0.85,0.84 c -0.110513,0.114715 -0.18971,0.255892 -0.23,0.41 l -0.94,3.78 c 0.004,0.0399 0.004,0.0801 0,0.12 -0.264276,0.594813 -0.801468,1.02382 -1.44,1.15 h -0.36 c -0.195952,-0.0019 -0.390864,-0.02873 -0.58,-0.08 -0.30632,-0.09394 -0.584606,-0.262285 -0.81,-0.49 l -2.54,-2.53 -4.7941915,4.701048 C 2.956567,21.968131 2.0689172,20.925242 2.727,20.219 l 4.67,-4.67 -2.5,-2.5 c -0.2235471,-0.230807 -0.3881931,-0.512077 -0.48,-0.82 -0.1015598,-0.306453 -0.1188296,-0.63458 -0.05,-0.95 0.058741,-0.310897 0.1926311,-0.602709 0.39,-0.85 0.1998991,-0.250652 0.4571262,-0.4495741 0.75,-0.58 h 0.12 l 3.74,-1 c 0.1656755,-0.04423 0.317194,-0.1303199 0.44,-0.25 1.39,-1.37 1.87,-1.85 2.63,-2.67 0.129366,-0.1369731 0.210173,-0.3126389 0.23,-0.5 l 0.24,-1.77 c 0.01085,-0.1262846 0.05578,-0.2472546 0.13,-0.35 0.525206,-0.7068795 1.450974,-0.987046 2.28,-0.69 0.270333,0.099681 0.515936,0.2565942 0.72,0.46 l 4.88,4.9 c 0.404405,0.4104367 0.612147,0.9753474 0.57,1.55 z"
     id="path1"
     sodipodi:nodetypes="cccccccccccccccccccccccccccccccccccc"
     style="fill:#8000ff;fill-opacity:1" />
</svg>
