<?xml version="1.0" encoding="UTF-8"?>
<svg xmlns="http://www.w3.org/2000/svg" xmlns:xlink="http://www.w3.org/1999/xlink" width="64" height="64" viewBox="0 0 64 64">
<path fill-rule="nonzero" fill="rgb(50.196081%, 0%, 100%)" fill-opacity="1" d="M 9.558594 10.265625 L 14.144531 14.855469 C 14.339844 15.050781 14.660156 15.050781 14.855469 14.855469 C 15.050781 14.660156 15.050781 14.339844 14.855469 14.144531 L 1.855469 1.144531 C 1.660156 0.949219 1.339844 0.949219 1.144531 1.144531 C 0.949219 1.339844 0.949219 1.660156 1.144531 1.855469 L 5.730469 6.4375 L 5.652344 6.589844 L 2.84375 7.527344 C 2.675781 7.582031 2.554688 7.714844 2.511719 7.886719 C 2.472656 8.054688 2.523438 8.230469 2.644531 8.355469 L 4.792969 10.5 L 2.144531 13.144531 L 2 14 L 2.851562 13.855469 L 5.5 11.207031 L 7.644531 13.355469 C 7.769531 13.476562 7.945312 13.527344 8.113281 13.488281 C 8.285156 13.445312 8.417969 13.324219 8.472656 13.15625 L 9.410156 10.347656 Z M 13.191406 8.324219 L 11.402344 9.28125 L 6.714844 4.59375 L 7.671875 2.796875 C 7.898438 2.378906 8.304688 2.089844 8.777344 2.019531 C 9.246094 1.949219 9.722656 2.109375 10.058594 2.445312 L 13.542969 5.941406 C 13.878906 6.277344 14.035156 6.753906 13.964844 7.222656 C 13.894531 7.691406 13.609375 8.101562 13.191406 8.324219 "/>
</svg>
